<svg xmlns="http://www.w3.org/2000/svg" width="1200" height="620" viewBox="0 0 1200 620"><rect width="1200" height="620" rx="28" fill="#f8fafc"/><g font-family="Inter,Arial,sans-serif"><text x="70" y="76" fill="#2563eb" font-size="22" font-weight="700">BYU HONORS · OPERATING REGIMES</text><text x="70" y="130" fill="#0f172a" font-size="42" font-weight="700">Three recurrent operating regimes</text><text x="70" y="170" fill="#64748b" font-size="20">A public-safe reconstruction of the thesis result in PCA space.</text><rect x="70" y="220" width="720" height="310" rx="18" fill="#fff" stroke="#e2e8f0" stroke-width="2"/><line x1="140" y1="475" x2="720" y2="475" stroke="#cbd5e1" stroke-width="2"/><line x1="140" y1="475" x2="140" y2="275" stroke="#cbd5e1" stroke-width="2"/><g fill="#2563eb" opacity=".55"><circle cx="250" cy="360" r="9"/><circle cx="285" cy="385" r="8"/><circle cx="310" cy="340" r="7"/><circle cx="268" cy="325" r="8"/><circle cx="330" cy="400" r="8"/></g><g fill="#1e3a8a" opacity=".72"><circle cx="470" cy="330" r="10"/><circle cx="500" cy="350" r="9"/><circle cx="520" cy="315" r="8"/><circle cx="545" cy="362" r="9"/><circle cx="485" cy="295" r="8"/></g><g fill="#f59e0b" opacity=".72"><circle cx="610" cy="410" r="10"/><circle cx="645" cy="390" r="9"/><circle cx="675" cy="420" r="8"/><circle cx="625" cy="445" r="9"/><circle cx="690" cy="380" r="8"/></g><text x="430" y="560" fill="#64748b" font-size="14">Principal component 1</text><text x="108" y="380" transform="rotate(-90 108 380)" fill="#64748b" font-size="14">Principal component 2</text><g transform="translate(840 240)"><rect width="290" height="86" rx="16" fill="#fff" stroke="#e2e8f0"/><circle cx="32" cy="43" r="9" fill="#2563eb"/><text x="55" y="37" fill="#0f172a" font-size="18" font-weight="700">Diffuse / unstable</text><text x="55" y="61" fill="#64748b" font-size="14">~12% of operating time</text><rect y="104" width="290" height="86" rx="16" fill="#fff" stroke="#e2e8f0"/><circle cx="32" cy="147" r="9" fill="#1e3a8a"/><text x="55" y="141" fill="#0f172a" font-size="18" font-weight="700">Configuration-specific</text><text x="55" y="165" fill="#64748b" font-size="14">~44% of operating time</text><rect y="208" width="290" height="86" rx="16" fill="#fff" stroke="#e2e8f0"/><circle cx="32" cy="251" r="9" fill="#f59e0b"/><text x="55" y="245" fill="#0f172a" font-size="18" font-weight="700">Stable operation</text><text x="55" y="269" fill="#64748b" font-size="14">~44% of operating time</text></g></g></svg>