<svg xmlns="http://www.w3.org/2000/svg" width="1200" height="620" viewBox="0 0 1200 620"><rect width="1200" height="620" rx="28" fill="#f8fafc"/><g font-family="Inter,Arial,sans-serif"><text x="70" y="76" fill="#2563eb" font-size="22" font-weight="700">RELIABILITY ANALYTICS</text><text x="70" y="130" fill="#0f172a" font-size="42" font-weight="700">From noisy signals to condition-monitoring candidates</text><text x="70" y="170" fill="#64748b" font-size="20">Build the analytical foundation before claiming a predictive model.</text><g transform="translate(60 235)" text-anchor="middle"><g fill="#fff" stroke="#e2e8f0" stroke-width="2"><rect x="0" y="0" width="190" height="170" rx="18"/><rect x="220" y="0" width="190" height="170" rx="18"/><rect x="440" y="0" width="190" height="170" rx="18"/><rect x="660" y="0" width="190" height="170" rx="18"/><rect x="880" y="0" width="190" height="170" rx="18"/></g><g fill="#2563eb" font-size="14" font-weight="700"><text x="95" y="34">01</text><text x="315" y="34">02</text><text x="535" y="34">03</text><text x="755" y="34">04</text><text x="975" y="34">05</text></g><g fill="#0f172a" font-size="19" font-weight="700"><text x="95" y="76">Raw signals</text><text x="315" y="76">Condition</text><text x="535" y="76">Engineer features</text><text x="755" y="68"><tspan x="755">Connect process</tspan><tspan x="755" dy="24">+ wear</tspan></text><text x="975" y="68"><tspan x="975">Monitoring</tspan><tspan x="975" dy="24">candidates</tspan></text></g><g fill="#64748b" font-size="14"><text x="95" y="118">high-noise time-series</text><text x="315" y="118">clean / reconstruct</text><text x="535" y="118">deltas / ratios / spikes</text><text x="755" y="128">operating context</text><text x="975" y="128">future ML basis</text></g></g><g><rect x="70" y="462" width="310" height="78" rx="16" fill="#fff" stroke="#e2e8f0"/><text x="95" y="493" fill="#0f172a" font-size="25" font-weight="700">50k+</text><text x="95" y="519" fill="#64748b" font-size="14">sensor time-series</text><rect x="445" y="462" width="310" height="78" rx="16" fill="#fff" stroke="#e2e8f0"/><text x="470" y="493" fill="#0f172a" font-size="25" font-weight="700">15+</text><text x="470" y="519" fill="#64748b" font-size="14">engineered reliability features</text><rect x="820" y="462" width="310" height="78" rx="16" fill="#fff" stroke="#e2e8f0"/><text x="845" y="493" fill="#0f172a" font-size="25" font-weight="700">100+</text><text x="845" y="519" fill="#64748b" font-size="14">structured assets</text></g></g></svg>