<svg xmlns="http://www.w3.org/2000/svg" width="1200" height="620" viewBox="0 0 1200 620"><rect width="1200" height="620" rx="28" fill="#f8fafc"/><g font-family="Inter,Arial,sans-serif"><text x="70" y="76" fill="#2563eb" font-size="22" font-weight="700">SHIFT DECISION SUPPORT</text><text x="70" y="130" fill="#0f172a" font-size="42" font-weight="700">Turn deviations into traceable actions</text><text x="70" y="170" fill="#64748b" font-size="20">Operating model first; digital support second.</text><g transform="translate(55 230)" font-size="16" text-anchor="middle"><g fill="#fff" stroke="#e2e8f0" stroke-width="2"><rect x="0" y="0" width="120" height="145" rx="16"/><rect x="135" y="0" width="120" height="145" rx="16"/><rect x="270" y="0" width="120" height="145" rx="16"/><rect x="405" y="0" width="120" height="145" rx="16"/><rect x="540" y="0" width="120" height="145" rx="16"/><rect x="675" y="0" width="120" height="145" rx="16"/><rect x="810" y="0" width="120" height="145" rx="16"/><rect x="945" y="0" width="120" height="145" rx="16"/></g><g fill="#2563eb" font-size="14" font-weight="700"><text x="60" y="38">01</text><text x="195" y="38">02</text><text x="330" y="38">03</text><text x="465" y="38">04</text><text x="600" y="38">05</text><text x="735" y="38">06</text><text x="870" y="38">07</text><text x="1005" y="38">08</text></g><g fill="#0f172a" font-weight="700"><text x="60" y="78">Plan</text><text x="195" y="78">Execute</text><text x="330" y="70"><tspan x="330">Detect</tspan><tspan x="330" dy="22">deviation</tspan></text><text x="465" y="70"><tspan x="465">Assess</tspan><tspan x="465" dy="22">impact</tspan></text><text x="600" y="70"><tspan x="600">Decide</tspan><tspan x="600" dy="22">&amp; assign</tspan></text><text x="735" y="78">Act</text><text x="870" y="78">Verify</text><text x="1005" y="78">Learn</text></g><g fill="#64748b" font-size="13"><text x="60" y="116">baseline</text><text x="195" y="116">real time</text><text x="330" y="116">event</text><text x="465" y="116">plan / risk</text><text x="600" y="116">owner / DRL</text><text x="735" y="116">coordinate</text><text x="870" y="116">recovery</text><text x="1005" y="116">feedback</text></g></g><rect x="70" y="435" width="1060" height="105" rx="18" fill="#0f172a"/><text x="100" y="474" fill="#fff" font-size="19" font-weight="700">Digital / LLM enabling layer</text><text x="100" y="508" fill="#cbd5e1" font-size="16">Structured context · classification support · decision guidance · evidence capture · continuous learning</text></g></svg>